<?xml version="1.0" encoding="UTF-8"?>
<svg xmlns="http://www.w3.org/2000/svg" xmlns:xlink="http://www.w3.org/1999/xlink" width="103px" height="80px" viewBox="0 0 103 80" version="1.1">
<defs>
<clipPath id="clip1">
  <path d="M 59.847656 35.289062 L 60 35.289062 L 60 40.839844 L 59.847656 40.839844 Z M 59.847656 35.289062 "/>
</clipPath>
</defs>
<g id="surface1">
<path style=" stroke:none;fill-rule:nonzero;fill:rgb(0%,10.588235%,44.313725%);fill-opacity:1;" d="M 46.65625 47.136719 C 46.84375 46.929688 47.035156 46.761719 47.277344 46.5625 L 47.285156 46.40625 C 46.980469 46.648438 46.710938 46.898438 46.480469 47.144531 Z M 45.988281 48.054688 C 45.691406 48.59375 45.582031 49.117188 45.789062 49.527344 C 46.433594 50.792969 49.417969 50.773438 52.285156 49.566406 C 53.007812 49.265625 53.664062 48.910156 54.230469 48.527344 C 55.910156 47.398438 56.5625 46.117188 56.082031 45.167969 C 55.4375 43.902344 52.832031 43.765625 49.957031 44.972656 C 49.652344 45.101562 49.355469 45.238281 49.078125 45.382812 L 48.835938 45.386719 C 49.246094 45.160156 49.703125 44.925781 50.164062 44.734375 C 53.425781 43.359375 56.664062 43.414062 57.394531 44.859375 C 57.945312 45.9375 57.109375 47.453125 55.1875 48.742188 C 54.546875 49.171875 53.746094 49.605469 52.933594 49.949219 C 49.671875 51.324219 46.402344 51.238281 45.667969 49.796875 C 45.410156 49.285156 45.457031 48.6875 45.796875 48.054688 Z M 45.988281 48.054688 "/>
<path style=" stroke:none;fill-rule:nonzero;fill:rgb(0%,10.588235%,44.313725%);fill-opacity:1;" d="M 46.902344 47.050781 C 46.667969 47.949219 45.949219 48.300781 45.222656 48.300781 C 44.203125 48.300781 43.863281 47.675781 44.058594 46.75 C 44.222656 45.839844 44.894531 45.226562 45.878906 45.226562 C 46.613281 45.226562 47.175781 45.523438 46.984375 46.527344 L 45.925781 46.527344 C 45.992188 46.050781 45.882812 45.984375 45.742188 45.988281 C 45.445312 45.988281 45.351562 46.292969 45.25 46.761719 C 45.15625 47.207031 45.113281 47.535156 45.402344 47.535156 C 45.550781 47.535156 45.671875 47.445312 45.816406 47.050781 Z M 46.902344 47.050781 "/>
<path style=" stroke:none;fill-rule:nonzero;fill:rgb(0%,10.588235%,44.313725%);fill-opacity:1;" d="M 46.808594 48.226562 L 48.246094 48.226562 C 49.140625 48.226562 49.832031 47.679688 50.019531 46.796875 C 50.203125 45.929688 49.964844 45.300781 48.796875 45.300781 L 47.429688 45.300781 Z M 48.417969 45.964844 L 48.53125 45.964844 C 48.714844 45.964844 48.8125 46.03125 48.855469 46.148438 C 48.910156 46.269531 48.890625 46.476562 48.828125 46.761719 C 48.769531 47.042969 48.703125 47.253906 48.597656 47.375 C 48.5 47.492188 48.378906 47.5625 48.191406 47.5625 L 48.078125 47.5625 Z M 48.417969 45.964844 "/>
<path style=" stroke:none;fill-rule:nonzero;fill:rgb(0%,10.588235%,44.313725%);fill-opacity:1;" d="M 50.273438 45.296875 L 51.308594 45.296875 L 51.164062 47.132812 L 51.171875 47.132812 L 51.832031 45.296875 L 53.027344 45.296875 L 52.90625 47.132812 L 52.914062 47.132812 L 53.550781 45.296875 L 54.582031 45.296875 L 53.332031 48.226562 L 52.082031 48.226562 L 52.214844 46.328125 L 52.203125 46.328125 L 51.535156 48.226562 L 50.28125 48.226562 Z M 50.273438 45.296875 "/>
<path style=" stroke:none;fill-rule:nonzero;fill:rgb(0%,10.588235%,44.313725%);fill-opacity:1;" d="M 58.164062 45.886719 C 58.015625 45.886719 57.898438 45.765625 57.898438 45.621094 C 57.898438 45.476562 58.015625 45.355469 58.164062 45.355469 C 58.308594 45.355469 58.425781 45.476562 58.425781 45.621094 C 58.425781 45.765625 58.308594 45.886719 58.164062 45.886719 M 58.164062 45.945312 C 58.339844 45.945312 58.480469 45.800781 58.480469 45.621094 C 58.480469 45.445312 58.339844 45.300781 58.164062 45.300781 C 57.984375 45.300781 57.839844 45.445312 57.839844 45.621094 C 57.839844 45.800781 57.984375 45.945312 58.164062 45.945312 M 58.144531 45.644531 C 58.164062 45.644531 58.183594 45.644531 58.199219 45.65625 C 58.21875 45.675781 58.21875 45.703125 58.222656 45.738281 C 58.222656 45.761719 58.230469 45.785156 58.234375 45.808594 L 58.308594 45.808594 C 58.296875 45.773438 58.292969 45.734375 58.285156 45.695312 C 58.28125 45.65625 58.277344 45.632812 58.222656 45.621094 C 58.273438 45.609375 58.300781 45.574219 58.300781 45.535156 C 58.300781 45.449219 58.226562 45.429688 58.160156 45.429688 L 58.035156 45.429688 L 58.035156 45.808594 L 58.09375 45.808594 L 58.09375 45.644531 Z M 58.09375 45.582031 L 58.09375 45.484375 L 58.164062 45.484375 C 58.210938 45.484375 58.226562 45.5 58.226562 45.53125 C 58.226562 45.5625 58.210938 45.585938 58.15625 45.585938 L 58.09375 45.585938 Z M 58.09375 45.582031 "/>
<path style=" stroke:none;fill-rule:nonzero;fill:rgb(0%,10.588235%,44.313725%);fill-opacity:1;" d="M 39.25 48.28125 L 40.136719 45.304688 L 41.089844 45.304688 L 41.972656 48.28125 L 41.109375 48.28125 L 40.960938 47.695312 L 40.226562 47.695312 L 40.074219 48.28125 Z M 40.589844 46.285156 L 40.378906 47.042969 L 40.804688 47.042969 L 40.597656 46.285156 Z M 40.589844 46.285156 "/>
<path style=" stroke:none;fill-rule:nonzero;fill:rgb(0%,10.588235%,44.313725%);fill-opacity:1;" d="M 61.460938 47.628906 C 61.679688 47.628906 61.851562 47.609375 62.324219 47.5 L 62.5 48.148438 C 62.066406 48.28125 61.761719 48.324219 61.398438 48.324219 C 60.339844 48.324219 60.035156 47.628906 60.035156 46.78125 C 60.035156 45.9375 60.339844 45.285156 61.398438 45.285156 C 61.761719 45.285156 62.066406 45.328125 62.5 45.457031 L 62.324219 46.109375 C 61.851562 46 61.679688 45.980469 61.460938 45.980469 C 61.050781 45.980469 60.855469 46.238281 60.855469 46.78125 C 60.855469 47.371094 61.050781 47.628906 61.460938 47.628906 Z M 61.460938 47.628906 "/>
<path style=" stroke:none;fill-rule:nonzero;fill:rgb(0%,10.588235%,44.313725%);fill-opacity:1;" d="M 62.628906 46.78125 C 62.628906 45.9375 62.929688 45.285156 63.988281 45.285156 C 65.046875 45.285156 65.347656 45.9375 65.347656 46.78125 C 65.347656 47.628906 65.042969 48.324219 63.988281 48.324219 C 62.929688 48.324219 62.628906 47.628906 62.628906 46.78125 Z M 63.449219 46.78125 C 63.449219 47.324219 63.535156 47.671875 63.988281 47.671875 C 64.441406 47.671875 64.527344 47.324219 64.527344 46.78125 C 64.527344 46.242188 64.441406 45.9375 63.988281 45.9375 C 63.535156 45.9375 63.449219 46.242188 63.449219 46.78125 Z M 63.449219 46.78125 "/>
<path style=" stroke:none;fill-rule:nonzero;fill:rgb(0%,10.588235%,44.313725%);fill-opacity:1;" d="M 67.261719 46.9375 L 67.75 45.328125 L 68.785156 45.328125 L 68.785156 48.28125 L 68.007812 48.28125 L 68.007812 46.71875 L 68 46.71875 L 67.488281 48.28125 L 66.925781 48.28125 L 66.4375 46.71875 L 66.429688 46.71875 L 66.429688 48.28125 L 65.675781 48.28125 L 65.675781 45.328125 L 66.710938 45.328125 L 67.25 46.9375 Z M 67.261719 46.9375 "/>
<path style=" stroke:none;fill-rule:nonzero;fill:rgb(0%,10.588235%,44.313725%);fill-opacity:1;" d="M 69.96875 47.371094 L 69.96875 48.28125 L 69.191406 48.28125 L 69.191406 45.328125 L 70.488281 45.328125 C 71.136719 45.328125 71.523438 45.71875 71.523438 46.351562 C 71.523438 46.980469 71.136719 47.371094 70.488281 47.371094 Z M 69.96875 46.675781 L 70.398438 46.675781 C 70.574219 46.675781 70.722656 46.609375 70.722656 46.347656 C 70.722656 46.089844 70.574219 46.023438 70.398438 46.023438 L 69.96875 46.023438 Z M 69.96875 46.675781 "/>
<path style=" stroke:none;fill-rule:nonzero;fill:rgb(0%,10.588235%,44.313725%);fill-opacity:1;" d="M 71.453125 48.28125 L 72.339844 45.304688 L 73.289062 45.304688 L 74.175781 48.28125 L 73.3125 48.28125 L 73.160156 47.695312 L 72.425781 47.695312 L 72.277344 48.28125 Z M 72.792969 46.285156 L 72.582031 47.042969 L 73.003906 47.042969 L 72.796875 46.285156 Z M 72.792969 46.285156 "/>
<path style=" stroke:none;fill-rule:nonzero;fill:rgb(0%,10.588235%,44.313725%);fill-opacity:1;" d="M 76.039062 48.28125 L 75.164062 46.847656 L 75.15625 46.847656 L 75.15625 48.28125 L 74.398438 48.28125 L 74.398438 45.328125 L 75.175781 45.328125 L 76.097656 46.847656 L 76.105469 46.847656 L 76.105469 45.328125 L 76.863281 45.328125 L 76.863281 48.28125 Z M 76.039062 48.28125 "/>
<path style=" stroke:none;fill-rule:nonzero;fill:rgb(0%,10.588235%,44.313725%);fill-opacity:1;" d="M 78.40625 46.457031 L 78.835938 45.328125 L 79.679688 45.328125 L 78.769531 47.238281 L 78.769531 48.28125 L 77.992188 48.28125 L 77.992188 47.238281 L 77.085938 45.328125 L 77.96875 45.328125 L 78.398438 46.457031 Z M 78.40625 46.457031 "/>
<path style=" stroke:none;fill-rule:nonzero;fill:rgb(0%,10.588235%,44.313725%);fill-opacity:1;" d="M 47.96875 35.289062 L 50.476562 35.289062 L 50.476562 40.839844 L 47.96875 40.839844 Z M 47.96875 35.289062 "/>
<path style=" stroke:none;fill-rule:nonzero;fill:rgb(0%,10.588235%,44.313725%);fill-opacity:1;" d="M 46.886719 37.949219 C 46.53125 37.683594 45.992188 37.503906 45.28125 37.40625 L 42.992188 37.128906 C 42.601562 37.09375 42.351562 37.035156 42.21875 36.984375 C 42.101562 36.925781 42.042969 36.839844 42.042969 36.746094 C 42.042969 36.625 42.113281 36.539062 42.28125 36.46875 C 42.433594 36.40625 42.660156 36.371094 42.933594 36.371094 C 43.328125 36.371094 43.625 36.417969 43.839844 36.503906 C 44.054688 36.601562 44.171875 36.730469 44.210938 36.902344 L 47.125 36.902344 C 47.066406 36.296875 46.710938 35.851562 46.054688 35.5625 C 45.402344 35.285156 44.398438 35.140625 43.054688 35.140625 C 41.757812 35.140625 40.804688 35.285156 40.210938 35.5625 C 39.613281 35.851562 39.316406 36.308594 39.316406 36.925781 C 39.316406 37.394531 39.519531 37.765625 39.910156 38.042969 C 40.304688 38.320312 40.886719 38.503906 41.660156 38.585938 L 43.53125 38.777344 C 43.839844 38.816406 44.066406 38.863281 44.210938 38.9375 C 44.351562 39.007812 44.425781 39.105469 44.425781 39.226562 C 44.425781 39.355469 44.339844 39.453125 44.175781 39.515625 C 44.007812 39.585938 43.757812 39.621094 43.414062 39.621094 C 43.078125 39.621094 42.816406 39.574219 42.613281 39.503906 C 42.425781 39.417969 42.316406 39.296875 42.292969 39.152344 L 39.246094 39.152344 C 39.257812 39.753906 39.589844 40.214844 40.234375 40.539062 C 40.875 40.851562 41.804688 41.019531 43.019531 41.019531 C 44.53125 41.019531 45.648438 40.851562 46.351562 40.539062 C 47.066406 40.214844 47.414062 39.71875 47.414062 39.03125 C 47.410156 38.589844 47.234375 38.214844 46.886719 37.949219 Z M 46.886719 37.949219 "/>
<path style=" stroke:none;fill-rule:nonzero;fill:rgb(0%,10.588235%,44.313725%);fill-opacity:1;" d="M 59.011719 39.550781 C 59.011719 39.480469 59.011719 39.417969 59 39.371094 C 58.988281 38.984375 58.917969 38.71875 58.796875 38.566406 C 58.6875 38.417969 58.484375 38.289062 58.199219 38.191406 C 58.53125 38.082031 58.796875 37.902344 58.988281 37.648438 C 59.167969 37.394531 59.265625 37.105469 59.265625 36.78125 C 59.265625 36.515625 59.203125 36.273438 59.074219 36.070312 C 58.953125 35.851562 58.761719 35.695312 58.523438 35.574219 C 58.332031 35.464844 57.667969 35.285156 56.96875 35.296875 L 51.421875 35.285156 L 51.421875 40.839844 L 53.96875 40.839844 L 53.96875 39.152344 L 55.472656 39.152344 C 55.785156 39.152344 56.011719 39.191406 56.144531 39.273438 C 56.273438 39.355469 56.355469 39.503906 56.382812 39.707031 C 56.394531 39.816406 56.40625 39.960938 56.417969 40.164062 C 56.429688 40.503906 56.464844 40.730469 56.5625 40.839844 L 59.359375 40.839844 L 59.359375 40.753906 C 59.167969 40.683594 59.046875 40.273438 59.011719 39.550781 Z M 56.25 37.578125 C 56.09375 37.648438 55.820312 37.683594 55.4375 37.683594 L 53.96875 37.683594 L 53.980469 36.722656 C 53.976562 36.71875 53.972656 36.71875 53.96875 36.714844 C 53.980469 36.710938 53.992188 36.710938 54 36.710938 C 53.996094 36.714844 53.988281 36.71875 53.980469 36.722656 L 55.378906 36.699219 C 55.820312 36.699219 56.121094 36.734375 56.261719 36.804688 C 56.417969 36.878906 56.488281 37 56.488281 37.179688 C 56.488281 37.359375 56.40625 37.492188 56.25 37.578125 Z M 56.25 37.578125 "/>
<path style=" stroke:none;fill-rule:nonzero;fill:rgb(0%,10.588235%,44.313725%);fill-opacity:1;" d="M 79.15625 37.949219 C 78.800781 37.683594 78.269531 37.503906 77.5625 37.40625 L 75.289062 37.128906 C 74.898438 37.09375 74.652344 37.035156 74.523438 36.984375 C 74.402344 36.925781 74.34375 36.839844 74.34375 36.746094 C 74.34375 36.625 74.417969 36.539062 74.582031 36.46875 C 74.734375 36.40625 74.960938 36.371094 75.242188 36.371094 C 75.621094 36.371094 75.917969 36.417969 76.128906 36.503906 C 76.34375 36.601562 76.460938 36.730469 76.496094 36.902344 L 79.394531 36.902344 C 79.335938 36.296875 78.992188 35.851562 78.332031 35.5625 C 77.679688 35.285156 76.6875 35.140625 75.351562 35.140625 C 74.0625 35.140625 73.117188 35.285156 72.523438 35.5625 C 71.933594 35.851562 71.636719 36.308594 71.636719 36.925781 C 71.636719 37.394531 71.839844 37.765625 72.230469 38.042969 C 72.621094 38.320312 73.199219 38.503906 73.96875 38.585938 L 75.824219 38.777344 C 76.132812 38.816406 76.355469 38.863281 76.5 38.9375 C 76.640625 39.007812 76.722656 39.105469 76.722656 39.226562 C 76.722656 39.355469 76.628906 39.453125 76.464844 39.515625 C 76.296875 39.585938 76.050781 39.621094 75.71875 39.621094 C 75.375 39.621094 75.113281 39.574219 74.914062 39.503906 C 74.726562 39.417969 74.617188 39.296875 74.59375 39.152344 L 71.582031 39.152344 C 71.582031 39.753906 71.914062 40.214844 72.550781 40.539062 C 73.1875 40.851562 74.109375 41.019531 75.316406 41.019531 C 76.820312 41.019531 77.929688 40.851562 78.628906 40.539062 C 79.339844 40.214844 79.679688 39.71875 79.679688 39.03125 C 79.675781 38.589844 79.5 38.214844 79.15625 37.949219 Z M 79.15625 37.949219 "/>
<path style=" stroke:none;fill-rule:nonzero;fill:rgb(0%,10.588235%,44.313725%);fill-opacity:1;" d="M 68.453125 38.011719 C 68.453125 38.566406 68.355469 38.949219 68.167969 39.167969 C 67.976562 39.382812 67.632812 39.492188 67.144531 39.492188 C 66.671875 39.492188 66.324219 39.382812 66.136719 39.167969 C 65.933594 38.949219 65.839844 38.566406 65.839844 38.011719 L 65.839844 35.289062 L 63.332031 35.289062 L 63.332031 38.203125 C 63.332031 39.164062 63.640625 39.878906 64.257812 40.324219 C 64.878906 40.769531 65.839844 40.996094 67.144531 40.996094 C 68.476562 40.996094 69.4375 40.78125 70.046875 40.324219 C 70.664062 39.878906 70.960938 39.164062 70.960938 38.203125 L 70.960938 35.289062 L 68.453125 35.289062 Z M 68.453125 38.011719 "/>
<path style=" stroke:none;fill-rule:nonzero;fill:rgb(0%,10.588235%,44.313725%);fill-opacity:1;" d="M 59.847656 35.289062 L 62.363281 35.289062 L 62.363281 40.839844 L 59.847656 40.839844 Z M 59.847656 35.289062 "/>
<path style=" stroke:none;fill-rule:nonzero;fill:rgb(0%,10.588235%,44.313725%);fill-opacity:1;" d="M 59.847656 35.289062 L 62.363281 35.289062 L 62.363281 40.839844 L 59.847656 40.839844 Z M 59.847656 35.289062 "/>
<g clip-path="url(#clip1)" clip-rule="nonzero">
<path style=" stroke:none;fill-rule:nonzero;fill:rgb(0%,10.588235%,44.313725%);fill-opacity:1;" d="M 58.703125 39.550781 C 58.703125 39.480469 58.703125 39.417969 58.691406 39.371094 C 58.679688 38.984375 58.609375 38.71875 58.492188 38.566406 C 58.390625 38.417969 58.191406 38.289062 57.914062 38.191406 C 58.238281 38.082031 58.492188 37.902344 58.679688 37.648438 C 58.855469 37.394531 58.945312 37.105469 58.945312 36.78125 C 58.945312 36.515625 58.886719 36.273438 58.761719 36.070312 C 58.644531 35.851562 58.460938 35.695312 58.226562 35.574219 C 58.042969 35.464844 57.398438 35.285156 56.71875 35.296875 L 51.335938 35.285156 L 51.335938 40.839844 L 53.808594 40.839844 L 53.808594 39.152344 L 55.269531 39.152344 C 55.570312 39.152344 55.789062 39.191406 55.917969 39.273438 C 56.046875 39.355469 56.128906 39.503906 56.152344 39.707031 C 56.164062 39.816406 56.175781 39.960938 56.1875 40.164062 C 56.199219 40.503906 56.234375 40.730469 56.324219 40.839844 L 59.039062 40.839844 L 59.039062 40.753906 C 58.855469 40.683594 58.738281 40.273438 58.703125 39.550781 Z M 56.023438 37.578125 C 55.871094 37.648438 55.605469 37.683594 55.234375 37.683594 L 53.808594 37.683594 L 53.820312 36.722656 C 53.816406 36.71875 53.8125 36.71875 53.808594 36.714844 C 53.820312 36.710938 53.832031 36.710938 53.839844 36.710938 C 53.835938 36.714844 53.828125 36.71875 53.820312 36.722656 L 55.175781 36.699219 C 55.605469 36.699219 55.894531 36.734375 56.035156 36.804688 C 56.1875 36.878906 56.253906 37 56.253906 37.179688 C 56.257812 37.359375 56.175781 37.492188 56.023438 37.578125 Z M 56.023438 37.578125 "/>
</g>
<path style=" stroke:none;fill-rule:nonzero;fill:rgb(0%,10.588235%,44.313725%);fill-opacity:1;" d="M 28.160156 35.339844 C 31.628906 32.566406 38.480469 28.710938 38.480469 28.710938 C 38.480469 28.710938 36.277344 30.578125 34.398438 32.523438 C 33.351562 33.605469 32.339844 35.042969 31.773438 35.863281 L 33.265625 35.472656 L 31.121094 37.410156 L 30.785156 34.570312 L 30.402344 37.410156 Z M 33.742188 40.933594 C 33.742188 40.933594 35.535156 39.621094 36.871094 38.441406 C 37.742188 37.675781 38.457031 36.644531 38.347656 35.59375 C 38.246094 34.582031 37.382812 34.457031 36.546875 34.664062 C 35.839844 34.839844 33.960938 35.300781 33.960938 35.300781 C 33.671875 35.5625 31.628906 37.914062 31.628906 37.914062 L 34.429688 38.324219 L 31.632812 38.675781 Z M 29.910156 38.675781 L 27.046875 38.328125 L 29.910156 37.90625 L 27.824219 35.589844 C 27.824219 35.589844 25.613281 37.289062 25.214844 37.691406 C 24.8125 38.089844 24.019531 38.710938 23.699219 39.828125 C 23.359375 40.996094 24.007812 41.765625 25.132812 41.566406 C 26.160156 41.382812 27.878906 40.886719 27.878906 40.886719 Z M 31.121094 39.1875 L 30.785156 42.003906 L 30.402344 39.1875 L 28.722656 40.671875 L 30.210938 40.367188 C 30.210938 40.367188 28.019531 43.835938 23.503906 47.453125 C 23.503906 47.453125 28.902344 44.425781 33.347656 41.226562 Z M 31.121094 39.1875 "/>
<path style=" stroke:none;fill-rule:nonzero;fill:rgb(0%,10.588235%,44.313725%);fill-opacity:1;" d="M 28.160156 35.339844 C 31.628906 32.566406 38.480469 28.710938 38.480469 28.710938 C 38.480469 28.710938 36.277344 30.578125 34.398438 32.523438 C 33 33.964844 32.199219 35.179688 31.773438 35.863281 L 33.265625 35.472656 L 31.121094 37.410156 L 30.785156 34.570312 L 30.402344 37.410156 Z M 33.742188 40.933594 C 33.742188 40.933594 35.535156 39.621094 36.871094 38.441406 C 37.742188 37.675781 38.457031 36.644531 38.347656 35.59375 C 38.246094 34.582031 37.382812 34.457031 36.546875 34.664062 C 35.839844 34.839844 33.960938 35.300781 33.960938 35.300781 C 33.671875 35.5625 31.628906 37.914062 31.628906 37.914062 L 34.429688 38.324219 L 31.632812 38.675781 Z M 29.910156 38.675781 L 27.046875 38.328125 L 29.910156 37.90625 L 27.824219 35.589844 C 27.824219 35.589844 25.613281 37.289062 25.214844 37.691406 C 24.8125 38.089844 24.019531 38.710938 23.699219 39.828125 C 23.359375 40.996094 24.007812 41.765625 25.132812 41.566406 C 26.160156 41.382812 27.878906 40.886719 27.878906 40.886719 Z M 31.121094 39.1875 L 30.785156 42.003906 L 30.402344 39.1875 L 28.722656 40.671875 L 30.210938 40.367188 C 30.210938 40.367188 28.019531 43.835938 23.503906 47.453125 C 23.503906 47.453125 28.902344 44.425781 33.347656 41.226562 Z M 31.121094 39.1875 "/>
</g>
</svg>
